<svg width="414" height="463" viewBox="0 0 414 463" fill="none" xmlns="http://www.w3.org/2000/svg">
<path fill-rule="evenodd" clip-rule="evenodd" d="M144.034 175.351C103.038 210.411 132.791 308.097 80.4552 321.164C26.4999 334.636 2.52919 235.935 -51.8425 224.258C-107.087 212.392 -168.97 290.349 -215.08 257.69C-258.36 227.036 -228.324 154.54 -225.009 101.608C-222.612 63.3364 -210.617 28.0543 -198.422 -8.30141C-187.383 -41.2115 -180.435 -76.4076 -156.778 -101.81C-133.173 -127.155 -91.7036 -125.922 -66.6285 -149.814C-13.4925 -200.441 -3.51168 -318.555 69.8773 -317.765C134.943 -317.064 122.208 -201.633 158.153 -147.393C183.645 -108.928 224.195 -85.1396 249.578 -46.6031C282.184 2.89717 353.033 56.2905 327.578 109.82C299.196 169.506 194.261 132.396 144.034 175.351Z" fill="#2B2853"/>
<path fill-rule="evenodd" clip-rule="evenodd" d="M110.177 140.614C81.7861 164.888 102.429 232.569 66.1753 241.605C28.7996 250.92 12.1617 182.539 -25.5105 174.432C-63.7876 166.195 -106.635 220.179 -138.59 197.54C-168.584 176.291 -147.798 126.08 -145.518 89.4124C-143.87 62.9009 -135.57 38.4632 -127.133 13.2818C-119.496 -9.51304 -114.693 -33.8927 -98.3116 -51.4823C-81.9664 -69.0327 -53.2361 -68.1659 -35.8716 -84.7087C0.924805 -119.764 7.80238 -201.583 58.6462 -201.013C103.724 -200.507 94.9372 -120.547 119.857 -82.9611C137.529 -56.3064 165.63 -39.8147 183.228 -13.1107C205.832 21.1906 254.933 58.2008 237.315 95.2753C217.671 136.613 144.96 110.873 110.177 140.614Z" fill="#5135A6"/>
<path fill-rule="evenodd" clip-rule="evenodd" d="M88.9766 117.841C68.4851 135.366 83.3605 184.196 57.1995 190.727C30.2292 197.459 18.2441 148.122 -8.93512 142.283C-36.5508 136.35 -67.4817 175.316 -90.532 158.99C-112.167 143.665 -97.1552 107.428 -95.4996 80.9692C-94.3027 61.8386 -88.3074 44.2026 -82.2127 26.0299C-76.6956 9.57957 -73.2234 -8.01359 -61.3985 -20.7105C-49.5999 -33.3791 -28.8704 -32.7619 -16.3368 -44.7037C10.2229 -70.0092 15.2087 -129.05 51.8938 -128.653C84.4184 -128.301 78.0557 -70.6011 96.0254 -43.4873C108.769 -24.2589 129.039 -12.367 141.729 6.89686C158.029 31.6413 193.446 58.3329 180.723 85.0901C166.538 114.924 114.082 96.3711 88.9766 117.841Z" fill="#5B30E2"/>
</svg>
