<svg width="24" height="24" viewBox="0 0 24 24" fill="none" xmlns="http://www.w3.org/2000/svg">
<path d="M8.34925 15.115L9.04599 15.8323L8.34924 15.115C7.95405 15.4989 7.72647 16.0258 7.72647 16.5816V22.9395C7.72647 22.9458 7.72418 22.9579 7.71021 22.9715C7.69525 22.986 7.66892 22.9992 7.63558 22.9992L1.09092 23C1.075 23 1.05989 22.9969 1.0467 22.9916C1.03356 22.9863 1.02346 22.9793 1.01627 22.9723C1.00915 22.9654 1.0051 22.9588 1.00289 22.9536C1.00072 22.9485 1 22.9441 1 22.9404V10.6936C1 10.6897 1.0008 10.685 1.00332 10.6794C1.00588 10.6738 1.01063 10.6665 1.01898 10.6592L0.359662 9.91263L1.01898 10.6592L11.9273 1.02516C11.9428 1.01151 11.9681 1 11.9992 1C12.0304 0.999999 12.0557 1.0115 12.0712 1.02516L22.981 10.6592C22.9894 10.6666 22.9941 10.6738 22.9967 10.6795L23.9067 10.265L22.9967 10.6795C22.9992 10.685 23 10.6897 23 10.6937V22.9404C23 22.9417 22.9999 22.9431 22.9997 22.9446C22.9993 22.9474 22.9985 22.9503 22.9971 22.9536C22.9949 22.9588 22.9909 22.9654 22.9837 22.9723C22.9765 22.9793 22.9664 22.9863 22.9533 22.9916C22.9401 22.9969 22.925 23 22.9091 23L16.3628 22.9992C16.3295 22.9992 16.3032 22.986 16.2882 22.9715L15.5914 23.6888L16.2882 22.9715C16.2742 22.9579 16.2719 22.9458 16.2719 22.9395V16.5816C16.2719 16.0258 16.0444 15.4989 15.6492 15.115L15.0288 15.7537L15.6492 15.115C15.255 14.7321 14.7263 14.522 14.181 14.522H9.81738C9.27207 14.522 8.74345 14.7321 8.34925 15.115Z" stroke="#C4BFFE" stroke-width="2" stroke-linecap="round" stroke-linejoin="round"/>
</svg>
