<svg width="24" height="35" viewBox="0 0 24 35" fill="none" xmlns="http://www.w3.org/2000/svg">
<path d="M14.7778 31H9.22222C7.99492 31 7 31.8954 7 33C7 34.1046 7.99492 35 9.22222 35H14.7778C16.0051 35 17 34.1046 17 33C17 31.8954 16.0051 31 14.7778 31Z" fill="#C4BFFE"/>
<path fill-rule="evenodd" clip-rule="evenodd" d="M10.0879 0.134602C9.8479 0.230397 9.45238 0.545206 9.20924 0.833941C8.86748 1.23972 8.76699 1.62656 8.76637 2.5399C8.76596 3.36342 8.64563 3.90497 8.369 4.3287C8.12813 4.69778 7.67989 5.0265 7.22813 5.16575C6.55309 5.37395 6.35833 5.34015 5.12153 4.79937C4.36916 4.47066 3.41603 4.20375 2.99363 4.20375C2.4232 4.20375 2.0957 4.33894 1.7068 4.73487C1.41983 5.02688 0.937269 5.67253 0.634376 6.16947C0.294888 6.72627 0.0835867 7.36477 0.0835867 7.83332C0.0835867 8.31268 0.243613 8.78373 0.516734 9.108C0.754913 9.39094 1.28978 9.78436 1.70556 9.98251C2.12113 10.1809 2.64732 10.5351 2.87475 10.7701C3.15304 11.0573 3.28825 11.4683 3.28825 12.0257C3.28825 12.5831 3.15304 12.9941 2.87475 13.2812C2.64732 13.5163 2.13561 13.8645 1.73761 14.0553C1.33961 14.2461 0.783445 14.633 0.501847 14.9148C0.141477 15.2754 -0.00717767 15.6388 0.000265428 16.1406C0.00729502 16.6138 0.277107 17.2639 0.801225 18.0708C1.23582 18.74 1.85236 19.4136 2.17117 19.5676C2.48998 19.7217 2.94422 19.8476 3.18054 19.8476C3.41685 19.8476 4.16302 19.5869 4.8389 19.2682C5.51477 18.9495 6.35874 18.6888 6.71435 18.6888C7.17438 18.6888 7.56431 18.8785 8.06424 19.3455C8.73143 19.9687 8.7672 20.0718 8.7672 21.3703C8.7672 22.6092 8.82426 22.7981 9.37051 23.3692C9.97298 23.999 9.9767 24 11.9719 24C13.967 24 13.9708 23.999 14.5732 23.3692C15.1027 22.8157 15.1765 22.5915 15.1774 21.5344C15.1778 20.6883 15.296 20.1499 15.5747 19.7227C15.8197 19.3474 16.2643 19.0247 16.7365 18.879C17.4525 18.6583 17.5933 18.688 18.9336 19.342C19.7212 19.7263 20.5517 20.0407 20.7793 20.0407C21.0068 20.0407 21.4629 19.9104 21.7928 19.7509C22.1559 19.5755 22.6825 18.9772 23.1264 18.2355C23.6276 17.3987 23.8601 16.764 23.8601 16.2339C23.8601 15.7383 23.7034 15.2717 23.427 14.9434C23.1888 14.6604 22.6271 14.2543 22.1784 14.0405C21.73 13.8267 21.1808 13.3728 20.9584 13.0319C20.7357 12.6908 20.5533 12.2513 20.5529 12.0548C20.5525 11.8584 20.6921 11.4223 20.8631 11.0855C21.0543 10.7093 21.6125 10.2284 22.3114 9.83786C22.9496 9.48133 23.5916 8.94403 23.7746 8.61358C23.9666 8.26671 24.0477 7.8281 23.9718 7.54574C23.9011 7.28231 23.5684 6.61213 23.2327 6.05629C22.8969 5.50064 22.4123 4.86774 22.1557 4.65008C21.8991 4.43242 21.4453 4.20066 21.1469 4.13499C20.7539 4.04847 20.2304 4.20104 19.2458 4.68909C18.4986 5.05952 17.5937 5.36255 17.2348 5.36255C16.7685 5.36255 16.3819 5.17521 15.8795 4.7059C15.2123 4.08265 15.1765 3.97952 15.1765 2.68108C15.1765 1.44212 15.1195 1.25324 14.5732 0.682138C13.9925 0.074924 13.9054 0.0496234 12.2473 0.00578194C11.2997 -0.0191324 10.3282 0.0388079 10.0879 0.134602ZM13.8926 8.43396C14.3144 8.63598 14.8581 9.00545 15.1007 9.25478C15.3432 9.50412 15.6922 9.98618 15.876 10.3261C16.0654 10.6763 16.2103 11.4133 16.2103 12.0257C16.2103 12.6381 16.0654 13.3751 15.876 13.7253C15.6922 14.0652 15.3432 14.5472 15.1007 14.7966C14.8581 15.0459 14.3144 15.4154 13.8926 15.6174C13.409 15.8492 12.6992 15.9849 11.9719 15.9849C11.2445 15.9849 10.5347 15.8492 10.0511 15.6174C9.62936 15.4154 9.0856 15.0459 8.84308 14.7966C8.60056 14.5472 8.25156 14.0652 8.06776 13.7253C7.87858 13.3755 7.73344 12.6383 7.73344 12.0276C7.73344 11.3462 7.87858 10.6838 8.12689 10.2315C8.34315 9.83747 8.73867 9.32991 9.00559 9.10395C9.2725 8.87779 9.76995 8.55525 10.1111 8.38742C10.4617 8.21476 11.2517 8.0786 11.9285 8.07416C12.7122 8.06913 13.3902 8.19332 13.8926 8.43396Z" fill="#C4BFFE"/>
</svg>
