<svg width="40" height="52" viewBox="0 0 40 52" fill="none" xmlns="http://www.w3.org/2000/svg">
<path fill-rule="evenodd" clip-rule="evenodd" d="M2.20431 0.0692311C2.03664 0.105683 1.74117 0.213761 1.54771 0.309405C1.2898 0.436915 1.10169 0.57908 0.842609 0.842184C0.634372 1.05376 0.426885 1.32116 0.337306 1.49354C0.253683 1.65438 0.143609 1.95034 0.0926281 2.15118C0.00098519 2.51243 0 2.7684 0 25.9986C0 49.2287 0.00098519 49.4847 0.0926281 49.846C0.143609 50.0468 0.253683 50.3428 0.337306 50.5036C0.426885 50.676 0.634372 50.9434 0.842609 51.1549C1.10206 51.4185 1.28943 51.5599 1.54771 51.6874C1.74117 51.7829 2.04719 51.8923 2.22776 51.9305C2.40832 51.9687 2.67214 52 2.81401 52C2.95588 52 3.20914 51.9706 3.37681 51.9347C3.54448 51.8988 3.80004 51.8166 3.94473 51.752C4.08937 51.6874 12.0249 46.357 21.5792 39.9067C31.9204 32.9252 39.0435 28.0869 39.1801 27.9516C39.3063 27.8265 39.4818 27.6114 39.5701 27.4735C39.6583 27.3356 39.7846 27.0803 39.8507 26.9062C39.9385 26.6749 39.9773 26.4654 39.9946 26.1293C40.0085 25.8599 39.9949 25.5462 39.9619 25.3728C39.9309 25.2099 39.8241 24.9064 39.7246 24.6984C39.6251 24.4904 39.4324 24.195 39.2965 24.0421C39.0848 23.804 36.5464 22.0833 21.6235 12.062C12.0392 5.626 4.08857 0.309216 3.95533 0.247092C3.82208 0.184921 3.56882 0.103224 3.39252 0.0655906C3.21623 0.0279098 2.94533 -0.00154467 2.79056 6.27914e-05C2.63579 0.00167026 2.37198 0.0327795 2.20431 0.0692311Z" fill="#C4BFFE"/>
</svg>
