<svg width="25" height="24" viewBox="0 0 25 24" fill="none" xmlns="http://www.w3.org/2000/svg">
<path d="M8.35536 18.8588V18.8552C8.35665 18.4929 8.43312 18.1358 8.57891 17.8046L9.49415 18.2076L8.57892 17.8046C8.72465 17.4736 8.93607 17.1765 9.1985 16.929C9.46081 16.6815 9.76912 16.488 10.1046 16.3573C10.4394 16.2268 10.7963 16.1607 11.1555 16.1616M8.35536 18.8588L14.7848 17.1616L14.7845 16.1616H11.1555M8.35536 18.8588V21.7876L8.32982 21.7954L8.32141 22.5267C8.32016 22.6359 8.27382 22.7514 8.17434 22.8446L8.85792 23.5744M8.35536 18.8588L1.97437 19.8803M11.1555 16.1616C11.1561 16.1616 11.1568 16.1616 11.1575 16.1616L11.1542 17.1616V16.1616H11.1555ZM8.85792 23.5744C8.56556 23.8483 8.17111 24.0012 7.76054 24H5.33977L9.32135 22.5382C9.31686 22.9281 9.15029 23.3006 8.85792 23.5744ZM8.85792 23.5744L8.17434 22.8446C8.07315 22.9393 7.92628 23.0005 7.76356 23H7.76054L5.33977 23L5.33631 23C4.88942 23.0015 4.44766 22.9194 4.03669 22.7593C3.62579 22.5992 3.25532 22.3651 2.94524 22.0726C2.63527 21.7802 2.39189 21.4355 2.22636 21.0596C2.06113 20.6843 1.97601 20.2837 1.97437 19.8803M1.97437 19.8803V9.45433C1.98303 9.17244 2.0572 8.89366 2.19411 8.63757C2.33293 8.37791 2.53371 8.14653 2.78529 7.96317L2.79339 7.95726L2.80138 7.95119L11.0354 1.69318L11.0491 1.6828L11.0623 1.67196C11.5753 1.25357 12.2337 1.01264 12.9249 1.00048C13.6162 0.988328 14.2843 1.20599 14.8144 1.60689L14.8161 1.60818L23.2338 7.94677C23.4696 8.13418 23.6555 8.36508 23.782 8.62099C23.9097 8.87942 23.9746 9.15879 23.9744 9.4397V9.44064V19.8898C23.9742 20.291 23.8903 20.6896 23.726 21.063C23.5618 21.4364 23.3197 21.7787 23.011 22.0686C22.3805 22.6602 21.5188 22.9991 20.6118 22.9965H20.609H18.1323C17.9688 22.9965 17.8216 22.9345 17.7206 22.8388L17.0333 23.5647L17.7212 22.8394C17.6736 22.7943 17.6389 22.7435 17.6164 22.6915L16.6987 23.0886L17.6164 22.6915C17.5939 22.6395 17.5833 22.5859 17.5836 22.533H17.5837V22.5266V18.8588L17.5837 18.8579C17.5833 18.4955 17.5074 18.138 17.3619 17.8066C17.2164 17.4755 17.0049 17.1784 16.7423 16.9311L1.97437 19.8803ZM16.742 16.9308C16.2131 16.4327 15.5088 16.1615 14.7848 16.1616L16.742 16.9308Z" stroke="#C4BFFE" stroke-width="2"/>
</svg>
