<svg width="24" height="35" viewBox="0 0 24 35" fill="none" xmlns="http://www.w3.org/2000/svg">
<path d="M14.7778 31H9.22222C7.99492 31 7 31.8954 7 33C7 34.1046 7.99492 35 9.22222 35H14.7778C16.0051 35 17 34.1046 17 33C17 31.8954 16.0051 31 14.7778 31Z" fill="#C4BFFE"/>
<path fill-rule="evenodd" clip-rule="evenodd" d="M5.33072 0.0121112C5.24031 0.0221606 4.99726 0.0638137 4.79061 0.104669C4.58395 0.145523 4.23523 0.242307 4.01566 0.31979C3.79609 0.397227 3.46849 0.534959 3.28767 0.62592C3.10685 0.716834 2.83209 0.876449 2.6771 0.980558C2.52211 1.08471 2.3319 1.22076 2.2544 1.28288C2.17691 1.34501 1.93794 1.56863 1.72335 1.77981C1.50881 1.99103 1.21033 2.34342 1.06013 2.56296C0.909887 2.78249 0.712767 3.11003 0.62198 3.29083C0.531241 3.47162 0.393628 3.79917 0.31618 4.0187C0.238685 4.23824 0.135875 4.59748 0.0876869 4.81701C0.00432095 5.19645 0 5.5517 0 12.0018C0 18.452 0.00432095 18.8072 0.0876869 19.1866C0.135875 19.4062 0.238732 19.7654 0.31618 19.985C0.393675 20.2045 0.53791 20.5426 0.636775 20.7363C0.73564 20.93 0.901245 21.214 1.00481 21.3674C1.10841 21.5208 1.31526 21.7854 1.46452 21.9554C1.61373 22.1254 1.87491 22.3865 2.04493 22.5357C2.2149 22.6849 2.47956 22.8918 2.63296 22.9953C2.7864 23.0989 3.07045 23.2645 3.26419 23.3633C3.45793 23.4622 3.79609 23.6064 4.01566 23.6839C4.23523 23.7613 4.59452 23.8641 4.81409 23.9123C5.19358 23.9957 5.54888 24 12 24C18.4511 24 18.8064 23.9957 19.1859 23.9123C19.4055 23.8641 19.7648 23.7613 19.9843 23.6839C20.2039 23.6064 20.5421 23.4624 20.7358 23.3638C20.9296 23.2652 21.2149 23.1002 21.3699 22.997C21.5249 22.8939 21.7897 22.6864 21.9585 22.536C22.1272 22.3856 22.3871 22.1239 22.536 21.9544C22.685 21.785 22.8916 21.5208 22.9952 21.3674C23.0988 21.214 23.2644 20.93 23.3632 20.7363C23.4621 20.5426 23.6063 20.2045 23.6838 19.985C23.7613 19.7654 23.8641 19.4062 23.9123 19.1866C23.9957 18.8072 24 18.452 24 12.0018C24 5.5517 23.9957 5.19645 23.9123 4.81701C23.8641 4.59748 23.7613 4.23824 23.6838 4.0187C23.6064 3.79917 23.4685 3.47162 23.3776 3.29083C23.2865 3.11003 23.112 2.81419 22.9896 2.63339C22.8673 2.4526 22.6487 2.1722 22.5038 2.01033C22.3589 1.84847 22.1099 1.59958 21.9504 1.45725C21.7909 1.31496 21.521 1.10646 21.3507 0.993895C21.1804 0.881333 20.872 0.705328 20.6654 0.602675C20.4587 0.500068 20.1205 0.360692 19.9139 0.292976C19.7072 0.225261 19.3902 0.133737 19.2094 0.0895476C18.9078 0.015868 18.327 0.00858928 12.1879 0.00154534C8.50685 -0.00268102 5.42113 0.0020619 5.33072 0.0121112ZM18.8113 2.06603C18.9799 2.10177 19.2863 2.19615 19.4923 2.2758C19.6984 2.35544 20.0023 2.50928 20.1678 2.61766C20.3333 2.72605 20.6035 2.94079 20.7683 3.09487C20.933 3.24899 21.1906 3.55864 21.3407 3.78306C21.4952 4.01396 21.6763 4.36395 21.7579 4.5895C21.8372 4.80866 21.925 5.11187 21.953 5.26332C21.988 5.45271 22.0037 7.56269 22.0031 12.0222C22.0024 17.3607 21.9908 18.5598 21.9373 18.8121C21.9016 18.9806 21.8067 19.2888 21.7263 19.497C21.6461 19.7052 21.4732 20.0322 21.3422 20.2237C21.2112 20.4152 20.9947 20.6845 20.8612 20.822C20.7276 20.9595 20.437 21.194 20.2152 21.343C19.9832 21.499 19.6403 21.6762 19.4076 21.7604C19.1852 21.8408 18.87 21.9294 18.7071 21.9573C18.5023 21.9923 16.3759 22.0037 11.8121 21.9943L5.21331 21.9807L4.76712 21.8261C4.52172 21.7411 4.15247 21.5721 3.94652 21.4505C3.72733 21.3211 3.41448 21.0737 3.19181 20.8537C2.98267 20.6471 2.72285 20.3407 2.6144 20.1728C2.506 20.0049 2.35214 19.699 2.27249 19.493C2.19283 19.287 2.09843 18.9806 2.06268 18.8121C2.00914 18.5597 1.99773 17.3601 1.99773 12.0018C1.99773 6.6436 2.00914 5.44397 2.06268 5.19156C2.09843 5.02303 2.19283 4.71662 2.27249 4.51065C2.35214 4.30464 2.50408 4.00363 2.61013 3.84176C2.71618 3.67989 2.91011 3.43025 3.041 3.28702C3.17195 3.1438 3.39724 2.93694 3.54167 2.82729C3.68614 2.71769 3.90495 2.57005 4.02801 2.49923C4.15101 2.42842 4.39407 2.31656 4.56813 2.25067C4.74214 2.18479 5.01135 2.10299 5.16634 2.06889C5.39192 2.01926 6.75086 2.00634 11.9765 2.004C17.3639 2.0016 18.5584 2.0124 18.8113 2.06603ZM11.6243 6.06586C11.5339 6.10502 11.3998 6.19401 11.3264 6.2636C11.253 6.3332 11.1526 6.46858 11.1033 6.56438C11.0167 6.73278 11.0137 6.91498 11.0137 12.0018C11.0137 17.0887 11.0167 17.2709 11.1033 17.4393C11.1526 17.5351 11.253 17.6705 11.3264 17.7401C11.3998 17.8098 11.5385 17.8996 11.6345 17.9397C11.7306 17.9798 11.895 18.0127 12 18.0127C12.105 18.0127 12.2694 17.9798 12.3655 17.9397C12.4615 17.8996 12.6009 17.8098 12.6752 17.7401C12.7495 17.6705 12.8494 17.529 12.8973 17.4257C12.9803 17.2464 12.9842 16.9994 12.9842 12.0018C12.9842 7.0043 12.9803 6.75729 12.8973 6.578C12.8494 6.47469 12.7495 6.33315 12.6752 6.26351C12.6009 6.19387 12.4615 6.10404 12.3655 6.06393C12.2694 6.02383 12.1004 5.99185 11.9898 5.99284C11.8792 5.99387 11.7147 6.02669 11.6243 6.06586ZM6.75081 10.0285C6.66646 10.0485 6.51584 10.1189 6.41608 10.1849C6.30115 10.261 6.18946 10.3956 6.11145 10.5521L5.98826 10.7993L5.98854 13.9716C5.98868 16.0789 6.00564 17.2046 6.03903 17.3247C6.06782 17.4285 6.17345 17.5898 6.28687 17.7032C6.41721 17.8336 6.56003 17.922 6.70624 17.9629C6.82821 17.997 7.01241 18.0136 7.11565 17.9998C7.21883 17.986 7.39787 17.9193 7.51341 17.8515C7.64595 17.7739 7.77168 17.6465 7.85392 17.5066L7.98434 17.2848L7.99928 14.162C8.00971 11.9771 7.99839 10.9662 7.96152 10.7964C7.92465 10.6265 7.85218 10.4892 7.72025 10.3394C7.57982 10.1798 7.47039 10.107 7.29158 10.0539C7.15951 10.0146 7.01829 9.98473 6.97775 9.98736C6.93727 9.99003 6.83511 10.0085 6.75081 10.0285ZM16.7337 10.0369C16.6378 10.0633 16.4635 10.1693 16.3464 10.2724C16.1846 10.4148 16.1161 10.5195 16.0613 10.7082C15.9988 10.923 15.9908 11.3852 16.0023 14.1207L16.0157 17.2848L16.1461 17.5066C16.2283 17.6465 16.3541 17.7739 16.4866 17.8515C16.6021 17.9193 16.7812 17.986 16.8844 17.9998C16.9876 18.0136 17.1718 17.997 17.2938 17.9629C17.4379 17.9225 17.5821 17.8341 17.7058 17.7102C17.8136 17.6023 17.9213 17.4357 17.954 17.3263C17.9972 17.1817 18.0117 16.3351 18.0117 13.9623V10.7916L17.8805 10.5404C17.7878 10.3629 17.6879 10.252 17.54 10.1623C17.4249 10.0924 17.2356 10.0248 17.1194 10.012C17.0031 9.99924 16.8296 10.0104 16.7337 10.0369Z" fill="#C4BFFE"/>
</svg>
